<svg width="50" height="50" viewBox="0 0 50 50" fill="none" xmlns="http://www.w3.org/2000/svg">
<g clip-path="url(#clip0_352_8277)">
<path d="M15.625 37.5C13.7119 37.5003 11.8753 36.7486 10.5113 35.4072C9.14725 34.0658 8.36505 32.242 8.33335 30.3292C8.14585 28.5271 8.17293 25.8687 9.39168 22.8C10.6375 19.6625 13.0667 16.2417 17.5 12.9167C17.7189 12.7525 17.9679 12.6331 18.233 12.5652C18.498 12.4973 18.7738 12.4822 19.0446 12.5209C19.5916 12.5991 20.0852 12.8913 20.4167 13.3333C20.7482 13.7754 20.8905 14.331 20.8124 14.878C20.7343 15.4249 20.442 15.9185 20 16.25C16.7417 18.6937 14.875 21.0687 13.8063 23.1458C14.8083 22.8885 15.8536 22.8474 16.8727 23.0251C17.8918 23.2028 18.8615 23.5954 19.7172 24.1767C20.573 24.758 21.2952 25.5147 21.836 26.3967C22.3768 27.2786 22.7237 28.2655 22.8538 29.2918C22.9838 30.3181 22.894 31.3603 22.5902 32.3492C22.2865 33.3382 21.7758 34.2511 21.0921 35.0275C20.4084 35.8039 19.5673 36.4258 18.6247 36.8521C17.6821 37.2784 16.6595 37.4993 15.625 37.5ZM34.375 37.5C32.4619 37.5003 30.6253 36.7486 29.2613 35.4072C27.8973 34.0658 27.1151 32.242 27.0833 30.3292C26.8958 28.5271 26.9229 25.8687 28.1417 22.8C29.3854 19.6625 31.8167 16.2417 36.25 12.9167C36.4689 12.7525 36.7179 12.6331 36.983 12.5652C37.248 12.4973 37.5238 12.4822 37.7946 12.5209C38.3416 12.5991 38.8352 12.8913 39.1667 13.3333C39.4982 13.7754 39.6405 14.331 39.5624 14.878C39.4843 15.4249 39.192 15.9185 38.75 16.25C35.4917 18.6937 33.625 21.0687 32.5563 23.1458C33.5583 22.8885 34.6036 22.8474 35.6227 23.0251C36.6418 23.2028 37.6115 23.5954 38.4672 24.1767C39.323 24.758 40.0452 25.5147 40.586 26.3967C41.1268 27.2786 41.4737 28.2655 41.6038 29.2918C41.7338 30.3181 41.644 31.3603 41.3402 32.3492C41.0365 33.3382 40.5258 34.2511 39.8421 35.0275C39.1584 35.8039 38.3173 36.4258 37.3747 36.8521C36.4321 37.2784 35.4095 37.4993 34.375 37.5Z" fill="#C7DEEC"/>
</g>
<defs>
<clipPath id="clip0_352_8277">
<rect width="50" height="50" fill="white" transform="matrix(-1 0 0 -1 50 50)"/>
</clipPath>
</defs>
</svg>
